<svg width="640" height="420" viewBox="0 0 640 420" fill="none" xmlns="http://www.w3.org/2000/svg" role="img" aria-label="ScaleBoard">
  <rect width="640" height="420" rx="36" fill="#0B0B0F"/>
  <rect x="36" y="36" width="568" height="348" rx="24" fill="#141425"/>
  <path d="M94 294c55-82 116-128 174-109 43 15 62 57 103 57 39 0 70-35 90-61" stroke="#A855F7" stroke-width="10" stroke-linecap="round"/>
  <path d="M94 320c60-80 129-126 198-101 46 16 69 58 113 58 28 0 52-14 77-40" stroke="#C4B5FD" stroke-width="8" stroke-linecap="round" opacity="0.9"/>
  <rect x="84" y="90" width="132" height="24" rx="12" fill="#A855F7"/>
  <rect x="84" y="124" width="84" height="12" rx="6" fill="#E9D5FF" opacity="0.85"/>
  <circle cx="504" cy="108" r="34" fill="#7C3AED" opacity="0.8"/>
</svg>
